<?xml version="1.0" encoding="utf-8"?>
<!-- Generator: Adobe Illustrator 23.0.1, SVG Export Plug-In . SVG Version: 6.00 Build 0)  -->
<svg version="1.1" id="Layer_1" xmlns="http://www.w3.org/2000/svg" xmlns:xlink="http://www.w3.org/1999/xlink" x="0px" y="0px"
	 viewBox="0 0 345 341" style="enable-background:new 0 0 345 341;" xml:space="preserve">
<style type="text/css">
	.st0{fill:none;stroke:#08F9AE;stroke-width:14;stroke-miterlimit:10;}
	.st1{fill:none;stroke:#6BF7C5;stroke-width:0.9;stroke-miterlimit:10;}
	.st2{fill:none;stroke:#08F9AE;stroke-width:14;stroke-linecap:round;stroke-linejoin:round;}
	.st3{fill:none;stroke:#6BF7C5;stroke-width:0.9;stroke-linecap:round;stroke-linejoin:round;}
	.st4{fill:#26A584;stroke:#08F9AE;stroke-width:12;stroke-linecap:round;stroke-linejoin:round;}
	.st5{fill:#FAFFFD;}
</style>
<title>editEvent</title>
<circle class="st0" cx="172.2" cy="170" r="162"/>
<path class="st1" d="M83.6,107.5"/>
<path class="st2" d="M133.1,66h107c5.6,0.1,10,4.8,9.9,10.4v179.3c0.1,5.6-4.3,10.2-9.9,10.4H93.5c-5.6-0.1-10-4.8-9.9-10.4
	l0.1-138.3"/>
<path class="st3" d="M134,66.1"/>
<path class="st3" d="M132.6,66"/>
<path class="st3" d="M132.6,66"/>
<path class="st2" d="M84,117.2l49-51.1l1.1,38.1c0.1,6.9-5.4,12.5-12.2,12.6c0,0,0,0,0,0L84,117.5"/>
<circle class="st4" cx="207.2" cy="215.6" r="66.7"/>
<path class="st5" d="M167.5,211.7h79.4c2.2,0,3.9,2.1,3.9,4.8v1.6c0,2.6-1.8,4.8-3.9,4.8h-79.4c-2.2,0-3.9-2.1-3.9-4.8v-1.6
	C163.5,213.8,165.3,211.7,167.5,211.7z"/>
<path class="st5" d="M212.5,175.9v79.4c0,2.2-2,4-4.5,4h-1.6c-2.5,0-4.5-1.8-4.5-4v-79.4c0-2.2,2-3.9,4.5-3.9h1.6
	C210.5,171.9,212.5,173.7,212.5,175.9z"/>
</svg>
