<svg id="Layer_1" data-name="Layer 1" xmlns="http://www.w3.org/2000/svg" viewBox="0 0 193.72 219.76"><defs><style>.cls-1,.cls-2,.cls-3{fill:none;}.cls-1,.cls-2,.cls-3,.cls-4{stroke:#6bf7c5;}.cls-1{stroke-miterlimit:10;}.cls-1,.cls-3,.cls-4{stroke-width:0.9px;}.cls-2,.cls-3,.cls-4{stroke-linecap:round;stroke-linejoin:round;}.cls-2{stroke-width:6px;}.cls-4{fill:#6bf7c5;}.cls-5{fill:#fafffd;}</style></defs><title>addIcon</title><path class="cls-1" d="M156.41,184.62" transform="translate(-153.41 -140.14)"/><path class="cls-2" d="M205.84,143.14h107a10.13,10.13,0,0,1,9.9,10.35V332.78a10.14,10.14,0,0,1-9.9,10.36H166.31a10.14,10.14,0,0,1-9.9-10.36l.08-138.33" transform="translate(-153.41 -140.14)"/><path class="cls-3" d="M206.74,143.23" transform="translate(-153.41 -140.14)"/><path class="cls-3" d="M205.37,143.14" transform="translate(-153.41 -140.14)"/><path class="cls-3" d="M205.37,143.14" transform="translate(-153.41 -140.14)"/><path class="cls-2" d="M156.75,194.37l49-51.14,1.14,38.1a12.42,12.42,0,0,1-12.25,12.61l-37.83.69" transform="translate(-153.41 -140.14)"/><circle class="cls-4" cx="126.54" cy="152.59" r="66.73"/><rect class="cls-5" x="82.87" y="147.96" width="87.34" height="9.25" rx="3.95"/><rect class="cls-5" x="238.67" y="288.1" width="87.34" height="9.25" rx="3.95" transform="translate(421.65 -129.75) rotate(90)"/></svg>