<svg id="Layer_1" data-name="Layer 1" xmlns="http://www.w3.org/2000/svg" viewBox="0 0 338 490.39"><defs><style>.cls-1{fill:none;stroke:#fc0606;stroke-miterlimit:10;stroke-width:14px;}.cls-2,.cls-3{fill:#fc0606;}.cls-3{font-size:115.66px;font-family:MyriadPro-Regular, Myriad Pro;}.cls-4{letter-spacing:0em;}.cls-5{letter-spacing:-0.01em;}.cls-6{letter-spacing:0em;}</style></defs><title>deleteIcon</title><circle class="cls-1" cx="169" cy="169" r="162"/><path class="cls-2" d="M98.75,103h0a20.38,20.38,0,0,1,28.71,0L266.85,242.32a20.38,20.38,0,0,1,0,28.71h0a20.38,20.38,0,0,1-28.71,0L98.75,131.68A20.38,20.38,0,0,1,98.75,103Z" transform="translate(-13.2 -13)"/><path class="cls-2" d="M98.22,266.15h0a20.39,20.39,0,0,1,0-28.71L237.47,98a20.39,20.39,0,0,1,28.71,0h0a20.39,20.39,0,0,1,0,28.71L126.93,266.13A20.52,20.52,0,0,1,98.22,266.15Z" transform="translate(-13.2 -13)"/><text class="cls-3" transform="translate(7 461.47)"><tspan class="cls-4">D</tspan><tspan x="77.49" y="0">ele</tspan><tspan class="cls-5" x="220.67" y="0">t</tspan><tspan class="cls-6" x="258.26" y="0">e</tspan></text></svg>