<svg id="Layer_1" data-name="Layer 1" xmlns="http://www.w3.org/2000/svg" viewBox="0 0 338 338"><defs><style>.cls-1{fill:none;stroke:#fc0606;stroke-miterlimit:10;stroke-width:14px;}.cls-2{fill:#fc0606;}</style></defs><title>delete</title><circle class="cls-1" cx="169" cy="169" r="162"/><path class="cls-2" d="M98.75,103h0a20.38,20.38,0,0,1,28.71,0L266.85,242.32a20.38,20.38,0,0,1,0,28.71h0a20.38,20.38,0,0,1-28.71,0L98.75,131.68A20.38,20.38,0,0,1,98.75,103Z" transform="translate(-13.2 -13)"/><path class="cls-2" d="M98.22,266.15h0a20.39,20.39,0,0,1,0-28.71L237.47,98a20.39,20.39,0,0,1,28.71,0h0a20.39,20.39,0,0,1,0,28.71L126.93,266.13A20.52,20.52,0,0,1,98.22,266.15Z" transform="translate(-13.2 -13)"/></svg>