<svg id="Layer_1" data-name="Layer 1" xmlns="http://www.w3.org/2000/svg" viewBox="0 0 223.34 225.31"><defs><style>.cls-1,.cls-2,.cls-4{fill:none;}.cls-1,.cls-2,.cls-3,.cls-4,.cls-5,.cls-6{stroke:#6bf7c5;stroke-miterlimit:10;}.cls-1{stroke-width:5.69px;}.cls-2{stroke-width:3.69px;}.cls-3,.cls-5,.cls-6{fill:#6bf7c5;}.cls-4{stroke-width:5.2px;}.cls-5{stroke-width:0.93px;}.cls-6{stroke-width:0.77px;}</style></defs><title>editIcon</title><rect class="cls-1" x="2.84" y="2.84" width="174.99" height="219.62" rx="10.85"/><path class="cls-2" d="M233,310.31,258.6,297a2.77,2.77,0,0,0,.51-4.57l-16.88-14.2a2.76,2.76,0,0,0-4.41,1.28L229.11,307A2.77,2.77,0,0,0,233,310.31Z" transform="translate(-138.64 -136.96)"/><rect class="cls-3" x="282.05" y="164.95" width="25.11" height="136.45" transform="translate(231.21 464.32) rotate(-139.91)"/><path class="cls-4" d="M356,183.83l-6.42,7.62-23.2-19.53,6.41-7.62c4.07-4.83,10.14-6.41,13.56-3.53l10.81,9.09C360.54,172.74,360,179,356,183.83Z" transform="translate(-138.64 -136.96)"/><rect class="cls-3" x="37.62" y="40.35" width="109.81" height="9.79" rx="4.9"/><rect class="cls-5" x="37.62" y="81.56" width="94.7" height="9.79" rx="4.9"/><rect class="cls-3" x="35.43" y="178.29" width="109.81" height="9.79" rx="4.9"/><rect class="cls-6" x="38.56" y="114.18" width="65.9" height="9.79" rx="4.9"/></svg>