<?xml version="1.0" encoding="utf-8"?>
<!-- Generator: Adobe Illustrator 23.0.1, SVG Export Plug-In . SVG Version: 6.00 Build 0)  -->
<svg version="1.1" id="Layer_1" xmlns="http://www.w3.org/2000/svg" xmlns:xlink="http://www.w3.org/1999/xlink" x="0px" y="0px"
	 viewBox="0 0 357.6 355.9" style="enable-background:new 0 0 357.6 355.9;" xml:space="preserve">
<style type="text/css">
	.st0{fill:none;stroke:#08F9AE;stroke-width:14;stroke-miterlimit:10;}
	.st1{fill:#08F9AE;}
</style>
<title>addEvent</title>
<circle class="st0" cx="178.2" cy="178" r="162"/>
<path class="st1" d="M59.3,178L59.3,178c0-11.1,9.1-20.3,20.3-20.3h197.1c11.1,0,20.3,9.1,20.3,20.3v0c0,11.1-9.1,20.3-20.3,20.3
	H79.6C68.5,198.3,59.3,189.2,59.3,178z"/>
<path class="st1" d="M178.2,296.9L178.2,296.9c-11.1,0-20.3-9.1-20.3-20.3V79.5c0-11.1,9.1-20.3,20.3-20.3h0
	c11.1,0,20.3,9.1,20.3,20.3v197.1C198.4,287.7,189.3,296.9,178.2,296.9z"/>
</svg>
