<?xml version="1.0" encoding="utf-8"?>
<!-- Generator: Adobe Illustrator 23.0.1, SVG Export Plug-In . SVG Version: 6.00 Build 0)  -->
<svg version="1.1" id="Layer_1" xmlns="http://www.w3.org/2000/svg" xmlns:xlink="http://www.w3.org/1999/xlink" x="0px" y="0px"
	 viewBox="0 0 356 353" style="enable-background:new 0 0 356 353;" xml:space="preserve">
<style type="text/css">
	.st0{fill:none;stroke:#08F9AE;stroke-width:14;stroke-miterlimit:10;}
	.st1{fill:none;stroke:#08F9AE;stroke-width:12;stroke-miterlimit:10;}
	.st2{fill:#6BF7C5;stroke:#08F9AE;stroke-width:12;stroke-miterlimit:10;}
	.st3{fill:none;stroke:#6BF7C5;stroke-width:12;stroke-miterlimit:10;}
	.st4{fill:#6BF7C5;}
	.st5{fill:#2FC98A;}
	.st6{fill:#12CC7C;}
	.st7{fill:#6BF7C5;stroke:#6BF7C5;stroke-width:0.9611;stroke-miterlimit:10;}
</style>
<title>editIcon</title>
<path class="st0" d="M97.7,67.7H251c6,0,10.9,4.9,10.9,10.9v197.9c0,6-4.9,10.9-10.9,10.9H97.7c-6,0-10.9-4.9-10.9-10.9V78.5
	C86.9,72.5,91.7,67.7,97.7,67.7z"/>
<path class="st1" d="M178.4,238.2l25.6-13.3c1.4-0.7,1.9-2.4,1.2-3.7c-0.2-0.3-0.4-0.6-0.7-0.8l-16.9-14.2c-1.2-1-2.9-0.8-3.9,0.3
	c-0.2,0.3-0.4,0.6-0.5,0.9l-8.7,27.5c-0.5,1.5,0.3,3,1.8,3.5C177,238.6,177.7,238.5,178.4,238.2z"/>
<rect x="171.8" y="148.5" transform="matrix(0.644 -0.765 0.765 0.644 -37.771 240.9546)" class="st2" width="136.4" height="25.1"/>
<path class="st3" d="M301.4,111.7l-6.4,7.6l-23.2-19.5l6.4-7.6c4.1-4.8,10.1-6.4,13.6-3.5l10.8,9.1
	C305.9,100.6,305.4,106.9,301.4,111.7z"/>
<path class="st4" d="M126.5,107.1h100c2.7,0,4.9,3.5,4.9,7.9l0,0c0,4.4-2.2,7.9-4.9,7.9h-100c-2.7,0-4.9-3.5-4.9-7.9l0,0
	C121.6,110.7,123.8,107.1,126.5,107.1z"/>
<path class="st5" d="M126.5,138.9h84.9c2.7,0,4.9,3.5,4.9,7.7v0c0,4.3-2.2,7.7-4.9,7.7h-84.9c-2.7,0-4.9-3.5-4.9-7.7v0
	C121.6,142.4,123.8,138.9,126.5,138.9z"/>
<path class="st6" d="M124.4,244.3h100c2.7,0,4.9,3,4.9,6.7v0c0,3.7-2.2,6.7-4.9,6.7h-100c-2.7,0-4.9-3-4.9-6.7v0
	C119.5,247.3,121.6,244.3,124.4,244.3z"/>
<path class="st7" d="M127.5,171.8h56.1c2.7,0,4.9,3.4,4.9,7.6v0c0,4.2-2.2,7.6-4.9,7.6h-56.1c-2.7,0-4.9-3.4-4.9-7.6v0
	C122.6,175.3,124.8,171.8,127.5,171.8z"/>
<circle class="st0" cx="177.5" cy="177.5" r="162"/>
</svg>
